<svg width="167" height="56" viewBox="0 0 167 56" fill="none" xmlns="http://www.w3.org/2000/svg">
<path d="M66.006 39.7344H60.354V28.0704H60.03L57.906 39.7344H52.11L50.094 28.0704H49.734V39.7344H44.154L44.91 17.3784H53.01L55.026 29.4744H55.314L57.258 17.3784H65.25L66.006 39.7344ZM81.0402 39.7344H68.9442V17.3784H81.4002L81.0402 22.8864H75.1002V26.2344H80.2482V30.9864H75.1002V34.6944H81.4002L81.0402 39.7344ZM96.9629 24.0384C94.6589 23.3424 92.9669 22.9944 91.8869 22.9944C90.8309 22.9944 90.0989 23.4624 89.6909 24.3984C89.3069 25.3344 89.1149 26.8224 89.1149 28.8624C89.1149 30.8784 89.2949 32.3544 89.6549 33.2904C90.0389 34.2024 90.8069 34.6584 91.9589 34.6584C92.2949 34.6584 92.9429 34.5624 93.9029 34.3704V31.6344H92.2829V27.3864H99.1589V39.7344H94.9109L94.3349 38.5824H94.1909C93.7829 38.9184 93.4589 39.1704 93.2189 39.3384C92.5469 39.8424 91.5989 40.0944 90.3749 40.0944C85.3589 40.0944 82.8509 36.3024 82.8509 28.7184C82.8509 24.9264 83.5109 22.0344 84.8309 20.0424C86.1509 18.0264 88.3709 17.0184 91.4909 17.0184C93.9869 17.0184 96.1349 17.4024 97.9349 18.1704L96.9629 24.0384ZM118.223 39.7344H112.211L111.527 36.2064H107.279L106.595 39.7344H100.871L104.975 17.3784H114.119L118.223 39.7344ZM110.843 31.9944L109.583 24.0024H109.331L108.071 31.9944H110.843Z" fill="#85C723"/>
<path d="M132.741 18.1403L131.789 28.6973H128.287L127.369 24.0223H127.233L126.468 28.6973H122.949L121.844 18.1403H124.632L125.074 23.7333H125.244L125.958 18.1403H128.797L129.579 23.7333H129.749L130.055 18.1403H132.741ZM134.452 19.2453C135.11 18.3953 136.181 17.9703 137.665 17.9703C139.15 17.9703 140.21 18.3896 140.844 19.2283C141.49 20.0669 141.813 21.4326 141.813 23.3253C141.813 25.2066 141.485 26.6006 140.827 27.5073C140.17 28.4139 139.105 28.8673 137.631 28.8673C136.158 28.8673 135.098 28.4196 134.452 27.5243C133.806 26.6289 133.483 25.2406 133.483 23.3593C133.483 21.4666 133.806 20.0953 134.452 19.2453ZM138.889 23.3253C138.889 22.2826 138.804 21.5799 138.634 21.2173C138.476 20.8433 138.141 20.6563 137.631 20.6563C137.133 20.6563 136.81 20.8433 136.662 21.2173C136.515 21.5799 136.441 22.2769 136.441 23.3083V23.7163C136.441 24.8156 136.521 25.5409 136.679 25.8923C136.849 26.2323 137.184 26.4023 137.682 26.4023C138.192 26.4023 138.521 26.2379 138.668 25.9093C138.816 25.5806 138.889 24.9006 138.889 23.8693V23.3253ZM150.196 21.4893C150.196 22.1239 150.099 22.6509 149.907 23.0703C149.714 23.4896 149.414 23.8693 149.006 24.2093L150.417 28.6973H147.272L146.218 24.8893H145.827V28.6973H142.971V18.1403H146.915C148.048 18.1403 148.875 18.4066 149.397 18.9393C149.929 19.4719 150.196 20.3219 150.196 21.4893ZM146.269 23.1043C146.563 23.1043 146.773 23.0193 146.898 22.8493C147.022 22.6793 147.085 22.3733 147.085 21.9313C147.085 21.4779 147.022 21.1663 146.898 20.9963C146.773 20.8149 146.569 20.7243 146.286 20.7243H145.827V23.1043H146.269ZM156.743 28.6973H151.371V18.1403H154.278V26.3343H156.913L156.743 28.6973ZM165.384 23.1893C165.384 26.8613 163.934 28.6973 161.032 28.6973H157.53V18.1403H161.1C162.653 18.1403 163.752 18.5766 164.398 19.4493C165.056 20.3106 165.384 21.5573 165.384 23.1893ZM160.981 26.2493C161.582 26.2493 161.967 26.0396 162.137 25.6203C162.319 25.1896 162.409 24.4756 162.409 23.4783C162.409 22.4696 162.313 21.7556 162.12 21.3363C161.939 20.9169 161.542 20.7073 160.93 20.7073H160.42V26.2493H160.981Z" fill="black"/>
<path d="M125.473 40.154C124.234 40.154 123.288 39.8093 122.635 39.12C121.99 38.4307 121.667 37.4517 121.667 36.183C121.667 35.5523 121.766 34.9913 121.964 34.5C122.162 34.0013 122.434 33.5833 122.778 33.246C123.123 32.9013 123.534 32.641 124.01 32.465C124.487 32.289 125.004 32.201 125.561 32.201C125.884 32.201 126.177 32.2267 126.441 32.278C126.705 32.322 126.936 32.377 127.134 32.443C127.332 32.5017 127.497 32.564 127.629 32.63C127.761 32.696 127.857 32.7473 127.915 32.784L127.42 34.17C127.186 34.0453 126.911 33.939 126.595 33.851C126.287 33.763 125.935 33.719 125.539 33.719C125.275 33.719 125.015 33.763 124.758 33.851C124.509 33.939 124.285 34.082 124.087 34.28C123.897 34.4707 123.743 34.72 123.625 35.028C123.508 35.336 123.449 35.71 123.449 36.15C123.449 36.502 123.486 36.832 123.559 37.14C123.64 37.4407 123.765 37.701 123.933 37.921C124.109 38.141 124.337 38.317 124.615 38.449C124.894 38.5737 125.231 38.636 125.627 38.636C125.877 38.636 126.1 38.6213 126.298 38.592C126.496 38.5627 126.672 38.5297 126.826 38.493C126.98 38.449 127.116 38.4013 127.233 38.35C127.351 38.2987 127.457 38.251 127.552 38.207L128.025 39.582C127.783 39.7287 127.442 39.8607 127.002 39.978C126.562 40.0953 126.053 40.154 125.473 40.154ZM134.986 40C134.905 39.736 134.813 39.4647 134.711 39.186C134.615 38.9073 134.52 38.6287 134.425 38.35H131.455C131.359 38.6287 131.26 38.9073 131.158 39.186C131.062 39.4647 130.974 39.736 130.894 40H129.112C129.398 39.1787 129.669 38.4197 129.926 37.723C130.182 37.0263 130.432 36.37 130.674 35.754C130.923 35.138 131.165 34.555 131.4 34.005C131.642 33.4477 131.891 32.905 132.148 32.377H133.787C134.036 32.905 134.282 33.4477 134.524 34.005C134.766 34.555 135.008 35.138 135.25 35.754C135.499 36.37 135.752 37.0263 136.009 37.723C136.265 38.4197 136.537 39.1787 136.823 40H134.986ZM132.929 34.104C132.892 34.214 132.837 34.3643 132.764 34.555C132.69 34.7457 132.606 34.9657 132.511 35.215C132.415 35.4643 132.309 35.7393 132.192 36.04C132.082 36.3407 131.968 36.656 131.851 36.986H134.018C133.9 36.656 133.787 36.3407 133.677 36.04C133.567 35.7393 133.46 35.4643 133.358 35.215C133.262 34.9657 133.178 34.7457 133.105 34.555C133.031 34.3643 132.973 34.214 132.929 34.104ZM140.532 38.691C140.774 38.691 140.972 38.6727 141.126 38.636C141.288 38.592 141.416 38.537 141.511 38.471C141.607 38.3977 141.673 38.3133 141.709 38.218C141.746 38.1227 141.764 38.0163 141.764 37.899C141.764 37.6497 141.647 37.4443 141.412 37.283C141.178 37.1143 140.774 36.9347 140.202 36.744C139.953 36.656 139.704 36.557 139.454 36.447C139.205 36.3297 138.981 36.1867 138.783 36.018C138.585 35.842 138.424 35.633 138.299 35.391C138.175 35.1417 138.112 34.841 138.112 34.489C138.112 34.137 138.178 33.8217 138.31 33.543C138.442 33.257 138.629 33.015 138.871 32.817C139.113 32.619 139.407 32.4687 139.751 32.366C140.096 32.256 140.485 32.201 140.917 32.201C141.431 32.201 141.874 32.256 142.248 32.366C142.622 32.476 142.93 32.597 143.172 32.729L142.677 34.082C142.465 33.972 142.226 33.8767 141.962 33.796C141.706 33.708 141.394 33.664 141.027 33.664C140.617 33.664 140.32 33.7227 140.136 33.84C139.96 33.95 139.872 34.1223 139.872 34.357C139.872 34.4963 139.905 34.6137 139.971 34.709C140.037 34.8043 140.129 34.8923 140.246 34.973C140.371 35.0463 140.51 35.116 140.664 35.182C140.826 35.2407 141.002 35.303 141.192 35.369C141.588 35.5157 141.933 35.6623 142.226 35.809C142.52 35.9483 142.762 36.1133 142.952 36.304C143.15 36.4947 143.297 36.7183 143.392 36.975C143.488 37.2317 143.535 37.5433 143.535 37.91C143.535 38.6213 143.286 39.175 142.787 39.571C142.289 39.9597 141.537 40.154 140.532 40.154C140.195 40.154 139.891 40.132 139.619 40.088C139.348 40.0513 139.106 40.0037 138.893 39.945C138.688 39.8863 138.508 39.824 138.354 39.758C138.208 39.692 138.083 39.6297 137.98 39.571L138.464 38.207C138.692 38.3317 138.97 38.4453 139.3 38.548C139.638 38.6433 140.048 38.691 140.532 38.691ZM145.296 32.377H147.012V40H145.296V32.377ZM154.331 40C153.84 39.1273 153.308 38.2657 152.736 37.415C152.164 36.5643 151.556 35.7613 150.91 35.006V40H149.216V32.377H150.613C150.855 32.619 151.123 32.916 151.416 33.268C151.71 33.62 152.007 33.9977 152.307 34.401C152.615 34.797 152.92 35.2113 153.22 35.644C153.521 36.0693 153.803 36.48 154.067 36.876V32.377H155.772V40H154.331ZM159.412 36.183C159.412 36.557 159.456 36.8943 159.544 37.195C159.639 37.4957 159.771 37.756 159.94 37.976C160.116 38.1887 160.328 38.3537 160.578 38.471C160.827 38.5883 161.113 38.647 161.436 38.647C161.751 38.647 162.033 38.5883 162.283 38.471C162.539 38.3537 162.752 38.1887 162.921 37.976C163.097 37.756 163.229 37.4957 163.317 37.195C163.412 36.8943 163.46 36.557 163.46 36.183C163.46 35.809 163.412 35.4717 163.317 35.171C163.229 34.863 163.097 34.6027 162.921 34.39C162.752 34.17 162.539 34.0013 162.283 33.884C162.033 33.7667 161.751 33.708 161.436 33.708C161.113 33.708 160.827 33.7703 160.578 33.895C160.328 34.0123 160.116 34.181 159.94 34.401C159.771 34.6137 159.639 34.874 159.544 35.182C159.456 35.4827 159.412 35.8163 159.412 36.183ZM165.231 36.183C165.231 36.8357 165.132 37.4113 164.934 37.91C164.743 38.4013 164.479 38.8157 164.142 39.153C163.804 39.483 163.401 39.7323 162.932 39.901C162.47 40.0697 161.971 40.154 161.436 40.154C160.915 40.154 160.424 40.0697 159.962 39.901C159.5 39.7323 159.096 39.483 158.752 39.153C158.407 38.8157 158.136 38.4013 157.938 37.91C157.74 37.4113 157.641 36.8357 157.641 36.183C157.641 35.5303 157.743 34.9583 157.949 34.467C158.154 33.9683 158.429 33.5503 158.774 33.213C159.126 32.8757 159.529 32.6227 159.984 32.454C160.446 32.2853 160.93 32.201 161.436 32.201C161.956 32.201 162.448 32.2853 162.91 32.454C163.372 32.6227 163.775 32.8757 164.12 33.213C164.464 33.5503 164.736 33.9683 164.934 34.467C165.132 34.9583 165.231 35.5303 165.231 36.183Z" fill="black"/>
<path d="M27.8569 16.329H12.2525C12.0094 16.329 11.7763 16.4255 11.6044 16.5974C11.4325 16.7693 11.3359 17.0025 11.3359 17.2455V38.5784C11.3359 38.8215 11.4325 39.0546 11.6044 39.2265C11.7763 39.3984 12.0094 39.495 12.2525 39.495H27.8569C28.1 39.495 28.3331 39.3984 28.505 39.2265C28.6769 39.0546 28.7735 38.8215 28.7735 38.5784V17.2455C28.7735 17.0025 28.6769 16.7693 28.505 16.5974C28.3331 16.4255 28.1 16.329 27.8569 16.329ZM15.7812 36.4646C15.6953 37.0375 14.8761 37.7421 14.6699 37.8967C14.5135 38.024 14.3696 38.1659 14.2403 38.3207C14.1137 38.1654 13.9717 38.0233 13.8164 37.8967C13.6101 37.7421 12.791 37.0203 12.6993 36.4646C12.6656 36.3393 12.6588 36.2083 12.6795 36.0802C12.7003 35.9521 12.7479 35.8298 12.8194 35.7215C12.8909 35.6132 12.9846 35.5213 13.0942 35.4519C13.2039 35.3825 13.327 35.3372 13.4555 35.3189C13.5708 35.3098 13.6867 35.3255 13.7954 35.365C13.9042 35.4046 14.0031 35.467 14.0856 35.5481C13.9851 35.2875 13.8418 35.0455 13.6617 34.832V34.7232H14.8074V34.832C14.6273 35.0455 14.4841 35.2875 14.3835 35.5481C14.466 35.467 14.5649 35.4046 14.6737 35.365C14.7824 35.3255 14.8983 35.3098 15.0136 35.3189C15.1435 35.3348 15.2685 35.3785 15.38 35.447C15.4915 35.5156 15.5869 35.6073 15.6597 35.716C15.7326 35.8248 15.7811 35.9479 15.8021 36.0771C15.8231 36.2063 15.816 36.3384 15.7812 36.4646ZM22.4721 31.6011C22.1183 31.627 21.7631 31.577 21.4302 31.4545C21.0972 31.332 20.7943 31.1398 20.5416 30.8908C20.8477 31.6905 21.2874 32.4324 21.842 33.0848V33.4171H18.2674V33.0848C18.8215 32.431 19.2629 31.6895 19.5735 30.8908C19.3195 31.1396 19.0156 31.3316 18.6817 31.4541C18.3479 31.5766 17.9919 31.6267 17.6373 31.6011C15.9989 31.498 15.0595 29.8196 15.3459 28.1125C15.6323 26.4054 18.1299 24.1885 18.783 23.7187C19.248 23.327 19.6704 22.8873 20.0432 22.4069C20.4304 22.8896 20.8683 23.3294 21.3493 23.7187C21.9909 24.1885 24.5057 26.3997 24.7864 28.1125C25.0671 29.8253 24.1162 31.5209 22.4721 31.6011ZM26.4076 20.717C26.2931 20.7265 26.178 20.7109 26.0701 20.6713C25.9623 20.6317 25.8644 20.5691 25.7832 20.4879C25.8799 20.752 26.0235 20.9965 26.2071 21.2097V21.3128H25.0614V21.2097C25.2444 20.9982 25.388 20.7557 25.4853 20.4936C25.4041 20.5749 25.3062 20.6375 25.1984 20.677C25.0905 20.7166 24.9754 20.7322 24.8609 20.7227C24.7324 20.7045 24.6093 20.6592 24.4996 20.5898C24.39 20.5204 24.2963 20.4285 24.2248 20.3202C24.1533 20.2119 24.1057 20.0896 24.085 19.9615C24.0643 19.8334 24.071 19.7023 24.1047 19.577C24.3362 18.9966 24.735 18.4981 25.2504 18.1449C25.4065 18.017 25.5486 17.873 25.6743 17.7153C25.8001 17.873 25.9422 18.017 26.0983 18.1449C26.6137 18.4981 27.0125 18.9966 27.244 19.577C27.2771 19.708 27.2809 19.8447 27.255 19.9773C27.2292 20.1099 27.1743 20.2352 27.0944 20.3441C27.0145 20.453 26.9115 20.543 26.7927 20.6074C26.674 20.6719 26.5425 20.7093 26.4076 20.717Z" fill="#85C723"/>
<path d="M20.0425 0.586914C20.3507 0.586914 20.6519 0.678298 20.9082 0.84951C21.1644 1.02072 21.3641 1.26407 21.4821 1.54879C21.6 1.8335 21.6309 2.14679 21.5707 2.44904C21.5106 2.75129 21.3622 3.02893 21.1443 3.24684C20.9264 3.46475 20.6488 3.61315 20.3465 3.67327C20.0443 3.73339 19.731 3.70254 19.4462 3.58461C19.1615 3.46667 18.9182 3.26696 18.747 3.01072C18.5758 2.75449 18.4844 2.45324 18.4844 2.14506C18.4844 1.73182 18.6485 1.3355 18.9407 1.04329C19.233 0.751076 19.6293 0.586914 20.0425 0.586914V0.586914Z" fill="#6BAF05"/>
<path d="M11.2856 7.27185C11.4435 7.27233 11.5998 7.23913 11.7439 7.17447L14.757 15.6641H25.3318L28.3794 7.1802C28.5225 7.24114 28.6764 7.27233 28.8319 7.27185C29.1035 7.27148 29.3656 7.17166 29.5686 6.99125C29.7716 6.81084 29.9016 6.56234 29.9339 6.29267C29.9662 6.023 29.8986 5.75084 29.7439 5.52759C29.5892 5.30435 29.3581 5.14548 29.0943 5.08098C28.8305 5.01649 28.5522 5.05085 28.3119 5.17756C28.0717 5.30427 27.8862 5.51456 27.7904 5.76872C27.6947 6.02288 27.6953 6.3033 27.7922 6.55702C27.8891 6.81075 28.0756 7.0202 28.3164 7.14583L22.4447 12.0895L20.0444 3.703L17.6385 12.0895L11.8011 7.14583C12.0419 7.0202 12.2284 6.81075 12.3253 6.55702C12.4222 6.3033 12.4228 6.02288 12.3271 5.76872C12.2313 5.51456 12.0458 5.30427 11.8056 5.17756C11.5654 5.05085 11.2871 5.01649 11.0232 5.08098C10.7594 5.14548 10.5283 5.30435 10.3736 5.52759C10.219 5.75084 10.1514 6.023 10.1837 6.29267C10.216 6.56234 10.3459 6.81084 10.5489 6.99125C10.7519 7.17166 11.014 7.27148 11.2856 7.27185Z" fill="#85C723"/>
<path d="M29.8711 39.7242L29.9226 43.4019L30.2549 43.4534H30.3924C30.6129 43.4532 30.8261 43.3738 30.9932 43.2298C31.1603 43.0859 31.2703 42.8867 31.3032 42.6686L33.9383 24.9962L34.4481 21.5591C34.466 21.4399 34.4601 21.3183 34.4309 21.2013C34.4017 21.0843 34.3497 20.9742 34.2778 20.8774C34.206 20.7805 34.1157 20.6988 34.0123 20.6369C33.9088 20.575 33.7941 20.5341 33.6748 20.5166L29.6133 19.9323V23.2261L29.8711 39.7242Z" fill="#7FCD0B"/>
<path d="M6.17596 25.0077L8.81106 42.6801C8.84423 42.9002 8.95585 43.1008 9.12536 43.2451C9.29486 43.3893 9.5108 43.4674 9.73335 43.4649H9.87083L10.1802 43.4191L10.2145 39.7815L10.5182 23.2376V19.9323L6.45093 20.5395C6.3306 20.5556 6.21467 20.5955 6.10989 20.6568C6.0051 20.7181 5.91354 20.7997 5.84053 20.8967C5.76751 20.9937 5.7145 21.1042 5.68456 21.2219C5.65462 21.3395 5.64835 21.462 5.66612 21.5821L6.17596 25.0077Z" fill="#7FCD0B"/>
<path d="M39.552 27.3213L34.7286 25.3335L32.1221 42.7997C32.0693 43.2166 31.8655 43.5998 31.5493 43.8766C31.229 44.1473 30.823 44.2955 30.4036 44.2948C30.3178 44.3005 30.2316 44.3005 30.1458 44.2948H29.9453L30.0026 48.4881L30.7301 48.7859C30.9558 48.8789 31.2091 48.8787 31.4346 48.7853C31.6601 48.6919 31.8393 48.5129 31.9331 48.2875L40.0504 28.5185C40.0963 28.4072 40.1199 28.2879 40.1197 28.1675C40.1195 28.047 40.0956 27.9278 40.0493 27.8166C40.003 27.7054 39.9353 27.6045 39.8499 27.5195C39.7646 27.4345 39.6634 27.3671 39.552 27.3213Z" fill="#6BAF05"/>
<path d="M10.1629 44.249H9.97961C9.89378 44.2547 9.80766 44.2547 9.72183 44.249C9.30223 44.2525 8.89583 44.1024 8.57926 43.827C8.26269 43.5516 8.05782 43.1699 8.00328 42.7538L5.38536 25.3335L0.567705 27.3213C0.45633 27.3671 0.355082 27.4345 0.269749 27.5195C0.184415 27.6045 0.11667 27.7054 0.0703848 27.8166C0.0240997 27.9278 0.000182678 28.047 1.0424e-06 28.1675C-0.000180593 28.2879 0.0233767 28.4072 0.0693262 28.5185L8.19232 48.2417C8.28609 48.4671 8.46535 48.6461 8.69084 48.7395C8.91633 48.8329 9.16965 48.8331 9.39531 48.7401L10.1228 48.4422L10.1629 44.249Z" fill="#6BAF05"/>
<path d="M11.3068 40.892L11.2266 49.1181L19.4756 49.1983L19.5329 40.9722L11.3068 40.892ZM12.7675 48.2646C12.6189 48.2634 12.4739 48.2182 12.351 48.1345C12.2281 48.0508 12.1329 47.9326 12.0773 47.7947C12.0217 47.6568 12.0084 47.5055 12.0389 47.36C12.0695 47.2145 12.1425 47.0814 12.2488 46.9775C12.3552 46.8736 12.4899 46.8036 12.6361 46.7764C12.7823 46.7492 12.9332 46.766 13.0698 46.8248C13.2063 46.8835 13.3224 46.9814 13.4032 47.1062C13.484 47.231 13.526 47.377 13.5237 47.5256C13.5207 47.7236 13.4395 47.9124 13.2978 48.0509C13.1562 48.1893 12.9656 48.2661 12.7675 48.2646ZM12.7675 45.767C12.6189 45.7658 12.4739 45.7205 12.351 45.6369C12.2281 45.5532 12.1329 45.4349 12.0773 45.2971C12.0217 45.1592 12.0084 45.0079 12.0389 44.8624C12.0695 44.7169 12.1425 44.5838 12.2488 44.4799C12.3552 44.376 12.4899 44.306 12.6361 44.2788C12.7823 44.2516 12.9332 44.2684 13.0698 44.3271C13.2063 44.3859 13.3224 44.4838 13.4032 44.6086C13.484 44.7334 13.526 44.8793 13.5237 45.028C13.5208 45.2221 13.4428 45.4075 13.306 45.5453C13.1693 45.6831 12.9845 45.7625 12.7904 45.767H12.7675ZM12.7962 43.2693C12.6925 43.2784 12.5881 43.2658 12.4895 43.2324C12.391 43.199 12.3005 43.1454 12.2237 43.0751C12.147 43.0048 12.0857 42.9193 12.0438 42.824C12.0019 42.7288 11.9802 42.6258 11.9802 42.5218C11.9802 42.4177 12.0019 42.3148 12.0438 42.2195C12.0857 42.1243 12.147 42.0388 12.2237 41.9685C12.3005 41.8982 12.391 41.8446 12.4895 41.8111C12.5881 41.7777 12.6925 41.7651 12.7962 41.7742C12.9831 41.7906 13.1572 41.8764 13.284 42.0148C13.4108 42.1532 13.4811 42.3341 13.4811 42.5218C13.4811 42.7095 13.4108 42.8903 13.284 43.0287C13.1572 43.1671 12.9831 43.253 12.7962 43.2693ZM17.9117 48.3161C17.808 48.3252 17.7036 48.3126 17.6051 48.2792C17.5065 48.2458 17.416 48.1922 17.3393 48.1219C17.2625 48.0516 17.2013 47.9661 17.1593 47.8708C17.1174 47.7756 17.0958 47.6726 17.0958 47.5686C17.0958 47.4645 17.1174 47.3616 17.1593 47.2663C17.2013 47.1711 17.2625 47.0856 17.3393 47.0153C17.416 46.945 17.5065 46.8914 17.6051 46.8579C17.7036 46.8245 17.808 46.8119 17.9117 46.821C18.0987 46.8374 18.2727 46.9232 18.3995 47.0616C18.5263 47.2 18.5966 47.3809 18.5966 47.5686C18.5966 47.7563 18.5263 47.9371 18.3995 48.0755C18.2727 48.2139 18.0987 48.2998 17.9117 48.3161ZM17.9117 45.8185C17.7137 45.8155 17.5249 45.7343 17.3864 45.5927C17.248 45.451 17.1712 45.2604 17.1727 45.0624C17.1727 44.9643 17.1922 44.8673 17.2301 44.7769C17.2679 44.6865 17.3234 44.6045 17.3932 44.5357C17.463 44.467 17.5459 44.4128 17.6369 44.3763C17.7278 44.3399 17.8252 44.3219 17.9232 44.3234C18.1212 44.3249 18.3106 44.4046 18.4501 44.5452C18.5896 44.6858 18.6679 44.8758 18.6679 45.0738C18.6712 45.2686 18.5992 45.4572 18.4668 45.6002C18.3345 45.7432 18.152 45.8297 17.9575 45.8414L17.9117 45.8185ZM17.9117 43.3209C17.7633 43.3198 17.6185 43.2746 17.4958 43.1912C17.373 43.1078 17.2777 42.9899 17.222 42.8524C17.1662 42.7148 17.1525 42.5638 17.1826 42.4185C17.2127 42.2731 17.2851 42.14 17.3909 42.0358C17.4966 41.9317 17.6309 41.8612 17.7767 41.8334C17.9225 41.8055 18.0732 41.8215 18.2099 41.8794C18.3466 41.9372 18.4631 42.0343 18.5446 42.1583C18.6261 42.2824 18.669 42.4278 18.6679 42.5762C18.6658 42.7634 18.5944 42.9432 18.4674 43.0808C18.3404 43.2183 18.1669 43.3039 17.9805 43.3209H17.9117ZM20.4781 40.9665L20.5984 49.1926L28.8245 49.0723L28.7042 40.8462L20.4781 40.9665ZM22.1164 48.299C21.9294 48.2826 21.7554 48.1967 21.6286 48.0583C21.5018 47.9199 21.4315 47.7391 21.4315 47.5514C21.4315 47.3637 21.5018 47.1828 21.6286 47.0444C21.7554 46.9061 21.9294 46.8202 22.1164 46.8038C22.2201 46.7947 22.3245 46.8073 22.4231 46.8408C22.5216 46.8742 22.6121 46.9278 22.6889 46.9981C22.7656 47.0684 22.8269 47.1539 22.8688 47.2491C22.9107 47.3444 22.9324 47.4473 22.9324 47.5514C22.9324 47.6555 22.9107 47.7584 22.8688 47.8536C22.8269 47.9489 22.7656 48.0344 22.6889 48.1047C22.6121 48.175 22.5216 48.2286 22.4231 48.262C22.3245 48.2955 22.2201 48.308 22.1164 48.299ZM22.0477 43.3037C21.8988 43.3071 21.7523 43.2662 21.6268 43.1861C21.5013 43.1059 21.4024 42.9903 21.3428 42.8539C21.2832 42.7174 21.2656 42.5663 21.2921 42.4198C21.3186 42.2733 21.3881 42.138 21.4918 42.0311C21.5954 41.9242 21.7286 41.8505 21.8742 41.8195C22.0198 41.7885 22.1714 41.8015 22.3096 41.8569C22.4478 41.9122 22.5664 42.0075 22.6504 42.1305C22.7343 42.2535 22.7797 42.3987 22.7809 42.5476C22.7849 42.7339 22.7188 42.9149 22.5958 43.0549C22.4728 43.1949 22.3017 43.2837 22.1164 43.3037H22.0477ZM24.7458 45.767C24.5974 45.7692 24.4517 45.7274 24.327 45.6468C24.2024 45.5663 24.1044 45.4505 24.0456 45.3143C23.9867 45.1781 23.9695 45.0274 23.9963 44.8814C24.023 44.7355 24.0924 44.6007 24.1958 44.4941C24.2991 44.3876 24.4317 44.3141 24.5768 44.2829C24.7219 44.2518 24.873 44.2643 25.0109 44.319C25.1489 44.3737 25.2676 44.4681 25.3519 44.5902C25.4363 44.7123 25.4825 44.8567 25.4848 45.0051C25.4887 45.1929 25.422 45.3754 25.2979 45.5165C25.1739 45.6575 25.0014 45.7469 24.8145 45.767H24.7458ZM27.2778 48.2302C27.0797 48.2317 26.8891 48.1549 26.7475 48.0165C26.6058 47.8781 26.5246 47.6893 26.5216 47.4912C26.5201 47.2926 26.5967 47.1014 26.735 46.9589C26.8733 46.8163 27.0621 46.7339 27.2606 46.7294C27.4596 46.7294 27.6505 46.8084 27.7912 46.9491C27.932 47.0899 28.011 47.2808 28.011 47.4798C28.011 47.6788 27.932 47.8697 27.7912 48.0104C27.6505 48.1512 27.4596 48.2302 27.2606 48.2302H27.2778ZM27.209 43.2292C27.0221 43.2129 26.848 43.127 26.7212 42.9886C26.5944 42.8502 26.5241 42.6694 26.5241 42.4817C26.5241 42.294 26.5944 42.1131 26.7212 41.9747C26.848 41.8363 27.0221 41.7505 27.209 41.7341C27.3127 41.725 27.4171 41.7376 27.5157 41.771C27.6142 41.8045 27.7048 41.8581 27.7815 41.9284C27.8582 41.9987 27.9195 42.0842 27.9614 42.1794C28.0033 42.2747 28.025 42.3776 28.025 42.4817C28.025 42.5857 28.0033 42.6887 27.9614 42.7839C27.9195 42.8792 27.8582 42.9647 27.7815 43.035C27.7048 43.1053 27.6142 43.1589 27.5157 43.1923C27.4171 43.2257 27.3127 43.2383 27.209 43.2292Z" fill="#85C723"/>
</svg>
